HIERARCHY
ROOT hip
{
	OFFSET 0.000000 0.000000 0.000000
	CHANNELS 6 Xposition Yposition Zposition Zrotation Yrotation Xrotation 
	JOINT lhipjoint
	{
		OFFSET 0.000000 0.000000 0.000000
		CHANNELS 3 Zrotation Yrotation Xrotation
		JOINT lfemur
		{
			OFFSET 1.363060 -1.794630 0.839290
			CHANNELS 3 Zrotation Yrotation Xrotation
			JOINT ltibia
			{
				OFFSET 2.448110 -6.726130 0.000000
				CHANNELS 3 Zrotation Yrotation Xrotation
				JOINT lfoot
				{
					OFFSET 2.562200 -7.039590 0.000000
					CHANNELS 3 Zrotation Yrotation Xrotation
					JOINT ltoes
					{
						OFFSET 0.157640 -0.433110 2.322550
						CHANNELS 3 Zrotation Yrotation Xrotation
						End Site
						{
							OFFSET 0.000000 0.000000 0.000000
						}
					}
				}
			}
		}
	}
	JOINT rhipjoint
	{
		OFFSET 0.000000 0.000000 0.000000
		CHANNELS 3 Zrotation Yrotation Xrotation
		JOINT rfemur
		{
			OFFSET -1.305520 -1.794630 0.839290
			CHANNELS 3 Zrotation Yrotation Xrotation
			JOINT rtibia
			{
				OFFSET -2.542530 -6.985550 0.000000
				CHANNELS 3 Zrotation Yrotation Xrotation
				JOINT rfoot
				{
					OFFSET -2.568260 -7.056230 0.000000
					CHANNELS 3 Zrotation Yrotation Xrotation
					JOINT rtoes
					{
						OFFSET -0.164730 -0.452590 2.363150
						CHANNELS 3 Zrotation Yrotation Xrotation
						End Site
						{
							OFFSET 0.000000 0.000000 0.000000
						}
					}
				}
			}
		}
	}
	JOINT lowerback
	{
		OFFSET 0.000000 0.000000 0.000000
		CHANNELS 3 Zrotation Yrotation Xrotation
		JOINT upperback
		{
			OFFSET 0.028270 2.035590 -0.193380
			CHANNELS 3 Zrotation Yrotation Xrotation
			JOINT thorax
			{
				OFFSET 0.056720 2.048850 -0.042750
				CHANNELS 3 Zrotation Yrotation Xrotation
				JOINT lowerneck
				{
					OFFSET 0.000000 0.000000 0.000000
					CHANNELS 3 Zrotation Yrotation Xrotation
					JOINT upperneck
					{
						OFFSET -0.054170 1.746240 0.172020
						CHANNELS 3 Zrotation Yrotation Xrotation
						JOINT head
						{
							OFFSET 0.104070 1.761360 -0.123970
							CHANNELS 3 Zrotation Yrotation Xrotation
							End Site
							{
								OFFSET 0.000000 0.000000 0.000000
							}
						}
					}
				}
				JOINT lclavicle
				{
					OFFSET 0.000000 0.000000 0.000000
					CHANNELS 3 Zrotation Yrotation Xrotation
					JOINT lhumerus
					{
						OFFSET 3.362410 1.200890 -0.311210
						CHANNELS 3 Zrotation Yrotation Xrotation
						JOINT lradius
						{
							OFFSET 4.983000 -0.000000 -0.000000
							CHANNELS 3 Zrotation Yrotation Xrotation
							JOINT lwrist
							{
								OFFSET 3.483560 -0.000000 -0.000000
								CHANNELS 3 Zrotation Yrotation Xrotation
								JOINT lhand
								{
									OFFSET 0.000000 0.000000 0.000000
									CHANNELS 3 Zrotation Yrotation Xrotation
									JOINT lfingers
									{
										OFFSET 0.715260 -0.000000 -0.000000
										CHANNELS 3 Zrotation Yrotation Xrotation
										End Site
										{
											OFFSET 0.000000 0.000000 0.000000
										}
									}
								}
								JOINT lthumb
								{
									OFFSET 0.000000 0.000000 0.000000
									CHANNELS 3 Zrotation Yrotation Xrotation
									End Site
									{
										OFFSET 0.000000 0.000000 0.000000
									}
								}
							}
						}
					}
				}
				JOINT rclavicle
				{
					OFFSET 0.000000 0.000000 0.000000
					CHANNELS 3 Zrotation Yrotation Xrotation
					JOINT rhumerus
					{
						OFFSET -3.136600 1.374050 -0.404650
						CHANNELS 3 Zrotation Yrotation Xrotation
						JOINT rradius
						{
							OFFSET -5.241900 -0.000000 -0.000000
							CHANNELS 3 Zrotation Yrotation Xrotation
							JOINT rwrist
							{
								OFFSET -3.444170 -0.000000 -0.000000
								CHANNELS 3 Zrotation Yrotation Xrotation
								JOINT rhand
								{
									OFFSET 0.000000 0.000000 0.000000
									CHANNELS 3 Zrotation Yrotation Xrotation
									JOINT rfingers
									{
										OFFSET -0.622530 -0.000000 -0.000000
										CHANNELS 3 Zrotation Yrotation Xrotation
										End Site
										{
											OFFSET 0.000000 0.000000 0.000000
										}
									}
								}
								JOINT rthumb
								{
									OFFSET 0.000000 0.000000 0.000000
									CHANNELS 3 Zrotation Yrotation Xrotation
									End Site
									{
										OFFSET 0.000000 0.000000 0.000000
									}
								}
							}
						}
					}
				}
			}
		}
	}
}
MOTION
Frames: 12
Frame Time: 0.008333
1.693535 17.458611 13.976104 -0.664005 9.244606 -10.371622 7.921873 5.646620 2.561310 -23.921954 -19.028594 -19.190030 2.331293 11.306526 36.163531 0.696358 3.870191 19.098596 0.143600 -2.442200 -6.729500 -8.852436 -7.277166 0.591284 22.302941 -6.725776 14.250157 -3.915617 -8.017064 36.352734 -2.787661 9.942627 10.528342 -0.152100 2.513100 -6.926000 1.863893 0.433485 6.944761 0.316768 0.352234 -1.251576 -3.873840 0.922714 1.509931 -2.509925 0.338247 -3.424507 2.776610 0.148149 10.157335 0.228400 0.178400 3.971600 7.703765 -2.803998 2.758375 -95.782871 4.531656 -30.349192 2.612982 -14.608951 -1.117715 -0.539299 -0.028329 45.381502 8.893800 -5.001425 -0.746600 -7.125000 0.000000 0.000000 -13.013600 25.308600 6.358100 -6.194996 4.372242 3.589082 84.607386 -9.723646 38.862549 -17.941557 40.375966 -4.727739 -0.519124 -3.129249 -1.835827 -16.408407 9.063108 -3.472600 7.125000 0.000000 0.000000 7.912800 -17.234200 5.263900 
1.744435 17.474106 14.094630 -0.335239 9.017971 -10.375530 7.893347 5.678455 2.538963 -24.453728 -18.710834 -18.682297 2.372067 11.297107 36.305858 0.642312 3.872173 18.644139 0.134300 -2.362500 -6.508500 -8.723219 -7.317371 0.710269 21.573771 -6.227319 12.527671 -4.470805 -8.747958 39.040031 -2.741946 9.442059 12.355835 -0.193400 2.831700 -7.810600 1.467389 0.523628 7.079807 0.297957 0.422449 -1.251900 -3.834424 0.956931 1.462660 -2.501626 0.332224 -3.495964 2.768025 0.134977 10.155586 0.201900 0.172100 4.034000 7.679536 -2.827982 2.751913 -95.766610 4.562320 -28.705646 2.720580 -15.161894 -1.159335 -0.527066 0.003638 44.018327 8.787190 -5.045543 -0.753300 -7.125000 0.000000 0.000000 -13.067100 25.226200 6.411300 -6.154169 4.395048 3.582729 84.527249 -9.954182 39.525666 -18.327285 40.635213 -4.806472 -0.522544 -3.132799 -1.903129 -16.517389 9.217639 -3.540900 7.125000 0.000000 0.000000 7.841900 -17.061400 5.245700 
1.793897 17.491039 14.210282 -0.023365 8.773894 -10.390685 7.865896 5.708111 2.515045 -24.963243 -18.382748 -18.160200 2.407923 11.278580 36.421407 0.583817 3.879906 18.145052 0.136800 -2.383800 -6.567700 -8.599249 -7.346362 0.830221 20.876745 -5.699829 10.835318 -5.028036 -9.449142 41.665457 -2.686997 8.747628 14.185208 -0.244700 3.183000 -8.788700 1.107307 0.621114 7.224390 0.278553 0.505079 -1.252255 -3.813422 0.998120 1.403484 -2.502905 0.322572 -3.543995 2.763292 0.118680 10.158151 0.189100 0.163200 4.091500 7.645546 -2.853136 2.747964 -95.729816 4.625306 -26.915566 2.861763 -15.775625 -1.206014 -0.512837 0.033609 42.545188 8.728786 -5.137345 -0.771400 -7.125000 0.000000 0.000000 -13.083200 25.094800 6.460800 -6.116165 4.419333 3.576759 84.439705 -10.154486 40.178393 -18.715354 40.897417 -4.885884 -0.528547 -3.134479 -1.901196 -16.604471 9.386753 -3.608400 7.125000 0.000000 0.000000 7.785800 -16.876800 5.239100 
1.840897 17.506739 14.322651 0.276732 8.525686 -10.368434 7.839265 5.731538 2.490098 -25.438841 -18.056059 -17.691358 2.438497 11.259296 36.519865 0.534244 3.877079 17.678199 0.143200 -2.439000 -6.720500 -8.482048 -7.364841 0.950910 20.214542 -5.130505 9.135383 -5.588373 -10.123169 44.217052 -2.612635 7.817804 15.935732 -0.312400 3.593400 -9.935500 0.744401 0.712931 7.325213 0.261906 0.579562 -1.254845 -3.760969 1.031166 1.332563 -2.537875 0.321881 -3.539479 2.759135 0.116423 10.168750 0.185800 0.160000 4.127100 7.607977 -2.882809 2.750404 -95.686931 4.724911 -24.974491 3.025433 -16.442638 -1.259497 -0.487974 0.068525 40.872209 8.773721 -5.142434 -0.786100 -7.125000 0.000000 0.000000 -13.034400 25.035300 6.454000 -6.076488 4.441097 3.574308 84.326035 -10.366576 40.829815 -19.121909 41.163015 -4.966894 -0.540877 -3.125373 -1.786931 -16.630585 9.627311 -3.678600 7.125000 0.000000 0.000000 7.772700 -16.634900 5.271500 
1.885126 17.520490 14.430710 0.545028 8.279975 -10.366692 7.812850 5.752114 2.463525 -25.870579 -17.735628 -17.219029 2.464248 11.232551 36.590939 0.481845 3.887749 17.212740 0.147800 -2.477200 -6.826500 -8.372148 -7.372994 1.067447 19.602000 -4.560727 7.474892 -6.143249 -10.761597 46.674482 -2.560805 6.917192 17.462046 -0.384700 3.983100 -11.029100 0.414769 0.793213 7.445095 0.247341 0.642155 -1.255747 -3.706542 1.058118 1.270199 -2.602979 0.328858 -3.547106 2.758743 0.129199 10.179762 0.200500 0.162000 4.168400 7.565072 -2.906170 2.750682 -95.624062 4.784581 -23.087709 3.205914 -17.090538 -1.313372 -0.460181 0.098692 39.260323 8.904496 -5.175158 -0.811900 -7.125000 0.000000 0.000000 -12.926300 24.949300 6.424300 -6.044804 4.456022 3.569841 84.219176 -10.497413 41.456130 -19.512129 41.415238 -5.042724 -0.554619 -3.114619 -1.533870 -16.632957 9.843368 -3.737300 7.125000 0.000000 0.000000 7.772100 -16.420700 5.307600 
1.925867 17.534447 14.534971 0.773974 8.034151 -10.359657 7.786675 5.768547 2.437479 -26.242236 -17.402022 -16.788908 2.486097 11.204723 36.651970 0.443090 3.867442 16.761449 0.139900 -2.410300 -6.641000 -8.270360 -7.370601 1.181805 19.068291 -3.969492 5.856089 -6.680732 -11.357509 48.999537 -2.526330 6.118939 18.566409 -0.469600 4.395400 -12.191900 0.130706 0.868335 7.581771 0.234117 0.702375 -1.259976 -3.657027 1.083177 1.167526 -2.698489 0.332330 -3.500831 2.763416 0.140351 10.167935 0.237900 0.160900 4.175400 7.511523 -2.941066 2.753917 -95.550587 4.880015 -21.135938 3.444713 -17.800107 -1.377277 -0.433804 0.134717 37.639581 9.013275 -5.186722 -0.833500 -7.125000 0.000000 0.000000 -12.834600 24.880400 6.397600 -6.019131 4.481744 3.568556 84.112894 -10.642117 42.047544 -19.924554 41.683435 -5.124733 -0.573525 -3.100560 -1.167624 -16.603435 10.095896 -3.797600 7.125000 0.000000 0.000000 7.793400 -16.174500 5.364400 
1.963836 17.547582 14.635642 0.982396 7.804269 -10.367834 7.762468 5.781834 2.412349 -26.581714 -17.057407 -16.385285 2.507863 11.178815 36.719187 0.419359 3.811562 16.328034 0.127500 -2.301900 -6.340800 -8.176886 -7.359976 1.291076 18.576086 -3.385486 4.315443 -7.189069 -11.901446 51.154447 -2.504316 5.451857 19.329343 -0.542000 4.717000 -13.103200 -0.125746 0.929557 7.746297 0.221218 0.745986 -1.267242 -3.632882 1.100183 1.029666 -2.789153 0.347418 -3.420031 2.769493 0.166292 10.148159 0.280200 0.166700 4.169200 7.447749 -2.985028 2.757799 -95.436542 5.010289 -19.160414 3.738146 -18.545807 -1.449714 -0.407776 0.172518 35.984835 9.128027 -5.202548 -0.856800 -7.125000 0.000000 0.000000 -12.739100 24.805400 6.370500 -5.999699 4.518109 3.567081 84.028542 -10.769018 42.606444 -20.346258 41.960436 -5.205603 -0.595227 -3.084225 -0.684067 -16.508941 10.354700 -3.843000 7.125000 0.000000 0.000000 7.857500 -15.929500 5.451400 
2.000061 17.558357 14.732207 1.154197 7.591171 -10.350681 7.739734 5.790421 2.389677 -26.875500 -16.760851 -16.035843 2.532566 11.162285 36.798163 0.392188 3.776616 15.906351 0.120300 -2.235600 -6.157100 -8.093835 -7.341269 1.391074 18.137519 -2.837917 2.815712 -7.662226 -12.393911 53.119289 -2.481340 4.860273 19.854406 -0.603600 4.973200 -13.832100 -0.336894 0.975006 7.901136 0.211552 0.774748 -1.276272 -3.589668 1.108782 0.899981 -2.936712 0.361775 -3.368464 2.785942 0.199480 10.128648 0.355600 0.172000 4.179500 7.379660 -3.026278 2.757230 -95.362130 5.124339 -17.301625 4.098213 -19.331946 -1.534237 -0.385619 0.214707 34.409700 9.229561 -5.214677 -0.878900 -7.125000 0.000000 0.000000 -12.651900 24.733000 6.346600 -5.990143 4.550989 3.561136 83.943208 -10.844232 43.083458 -20.772195 42.237797 -5.290302 -0.619387 -3.064751 -0.144370 -16.366364 10.629181 -3.878500 7.125000 0.000000 0.000000 7.954400 -15.676300 5.563900 
2.034130 17.566977 14.826617 1.281350 7.397006 -10.357607 7.716623 5.797468 2.368294 -27.113495 -16.442773 -15.726019 2.559156 11.151541 36.895943 0.388419 3.687630 15.530498 0.119300 -2.226500 -6.132200 -8.022062 -7.318151 1.478474 17.768188 -2.343313 1.419234 -8.093964 -12.829968 54.870184 -2.447799 4.303852 20.210535 -0.621500 5.045000 -14.037100 -0.512381 1.001603 8.066085 0.205394 0.783083 -1.284587 -3.538578 1.105745 0.766779 -3.079782 0.379596 -3.291650 2.790069 0.236460 10.105157 0.418800 0.179700 4.171900 7.316441 -3.067626 2.759675 -95.344111 5.234656 -15.744444 4.535574 -20.145392 -1.633309 -0.374676 0.260099 33.214303 9.256964 -5.221694 -0.893300 -7.125000 0.000000 0.000000 -12.614100 24.672600 6.344800 -5.978730 4.581700 3.558215 83.855168 -10.895097 43.553206 -21.205121 42.515176 -5.376354 -0.641975 -3.043944 0.416152 -16.197952 10.878305 -3.899000 7.125000 0.000000 0.000000 8.067200 -15.453400 5.683400 
2.066866 17.574982 14.919796 1.367486 7.235327 -10.359355 7.697049 5.802673 2.351601 -27.322435 -16.217333 -15.411109 2.590802 11.146410 37.004013 0.367697 3.643781 15.106074 0.120300 -2.235700 -6.157500 -7.960069 -7.291607 1.554070 17.447952 -1.914102 0.107816 -8.476416 -13.210435 56.392519 -2.410172 3.820379 20.400555 -0.578600 4.870800 -13.540500 -0.629317 1.009828 8.224764 0.200282 0.774459 -1.294447 -3.519154 1.096405 0.633259 -3.218155 0.399904 -3.223574 2.802110 0.278144 10.084095 0.493600 0.189200 4.171800 7.246410 -3.107096 2.759637 -95.301046 5.344899 -14.266195 5.001366 -20.944786 -1.737061 -0.365807 0.301870 32.137795 9.284830 -5.248739 -0.910300 -7.125000 0.000000 0.000000 -12.576200 24.596900 6.347500 -5.977007 4.616218 3.553594 83.823310 -10.932228 43.926237 -21.642090 42.810216 -5.468500 -0.664954 -3.028054 0.958959 -16.013504 11.127916 -3.915100 7.125000 0.000000 0.000000 8.191700 -15.226700 5.813300 
2.097447 17.583910 15.011641 1.452884 7.115339 -10.344082 7.680385 5.804627 2.338572 -27.539313 -16.101280 -15.075299 2.624509 11.142573 37.106756 0.323197 3.670171 14.671850 0.119200 -2.226100 -6.131000 -7.909338 -7.264281 1.618730 17.158305 -1.545680 -1.131640 -8.807888 -13.540677 57.686284 -2.358918 3.385075 20.365989 -0.508800 4.572300 -12.692600 -0.791773 0.989732 8.352716 0.200296 0.724125 -1.305671 -3.446905 1.060321 0.510206 -3.351686 0.440006 -3.160746 2.808972 0.342149 10.070141 0.545700 0.211600 4.174900 7.186650 -3.144968 2.758467 -95.258006 5.435631 -12.921754 5.462287 -21.712493 -1.843573 -0.359775 0.344843 31.105440 9.277926 -5.258839 -0.921200 -7.125000 0.000000 0.000000 -12.564300 24.538700 6.358600 -5.963513 4.639528 3.548740 83.737981 -10.930984 44.382199 -22.112183 43.100282 -5.565383 -0.679953 -3.009299 1.367980 -15.784452 11.325286 -3.902500 7.125000 0.000000 0.000000 8.345500 -15.063100 5.954400 
2.125257 17.593761 15.103998 1.478099 7.027592 -10.360947 7.660284 5.808132 2.329195 -27.694089 -16.009955 -14.706109 2.652440 11.128398 37.181176 0.284873 3.682094 14.245307 0.117600 -2.210900 -6.088900 -7.872052 -7.237198 1.670602 16.975547 -1.217727 -2.248164 -9.084088 -13.818803 58.746934 -2.292315 3.016165 20.048495 -0.465400 4.375700 -12.136000 -0.941551 0.920185 8.473825 0.210249 0.613078 -1.317413 -3.310683 0.987058 0.394379 -3.491917 0.514415 -3.094159 2.805350 0.449224 10.054180 0.574700 0.256700 4.168200 7.142984 -3.183609 2.759011 -95.256267 5.510273 -11.736677 5.921030 -22.459292 -1.954756 -0.348976 0.387939 30.165665 9.368113 -5.263193 -0.940400 -7.125000 0.000000 0.000000 -12.485500 24.482500 6.333600 -5.941772 4.652345 3.545095 83.617686 -10.881980 44.922312 -22.589056 43.367548 -5.661464 -0.686440 -2.990875 1.576495 -15.539524 11.467563 -3.868900 7.125000 0.000000 0.000000 8.510800 -14.959800 6.094100 
